# xmcd
#
# Track frame offsets:
# 150
# 12182
# 41186
# 70624
#
# Disc length: 1145 seconds
#
# Revision: 0
# Processed by: cddbd v1.4PL0 Copyright (c) Steve Scherf et al.
# Submitted via: Audion 3.0.2 (http://www.panic.com/audion/)
#
DISCID=2b047704
DTITLE=Green Velvet - Genedefekt
DYEAR=1900
DGENRE=
TTITLE0=Genedefekt (Radio Mix)
TTITLE1=Genedefekt (Cajmere Mix)
TTITLE2=Genedefekt (Geo Vogt Mix)
TTITLE3=La La Land (Radio Edit)
EXTD=
EXTT0=
EXTT1=
EXTT2=
EXTT3=
PLAYORDER=
